<?xml version="1.0" encoding="UTF-8"?>
<svg xmlns="http://www.w3.org/2000/svg" xmlns:xlink="http://www.w3.org/1999/xlink" width="27px" height="26px" viewBox="0 0 26 26" version="1.1">
<g id="surface1">
<path style=" stroke:none;fill-rule:evenodd;fill:rgb(100%,100%,100%);fill-opacity:1;" d="M 12.960938 0 C 5.792969 0 0 5.957031 0 13.328125 C 0 19.222656 3.710938 24.210938 8.863281 25.976562 C 9.507812 26.109375 9.742188 25.6875 9.742188 25.335938 C 9.742188 25.027344 9.722656 23.96875 9.722656 22.863281 C 6.117188 23.65625 5.363281 21.273438 5.363281 21.273438 C 4.785156 19.730469 3.925781 19.332031 3.925781 19.332031 C 2.746094 18.515625 4.011719 18.515625 4.011719 18.515625 C 5.320312 18.605469 6.007812 19.882812 6.007812 19.882812 C 7.167969 21.914062 9.035156 21.339844 9.785156 20.988281 C 9.890625 20.125 10.234375 19.53125 10.601562 19.199219 C 7.726562 18.890625 4.699219 17.742188 4.699219 12.625 C 4.699219 11.167969 5.214844 9.976562 6.03125 9.046875 C 5.902344 8.71875 5.449219 7.347656 6.160156 5.515625 C 6.160156 5.515625 7.253906 5.164062 9.722656 6.886719 C 10.777344 6.59375 11.867188 6.445312 12.960938 6.445312 C 14.054688 6.445312 15.171875 6.597656 16.203125 6.886719 C 18.667969 5.164062 19.765625 5.515625 19.765625 5.515625 C 20.472656 7.347656 20.019531 8.71875 19.890625 9.046875 C 20.730469 9.976562 21.222656 11.167969 21.222656 12.625 C 21.222656 17.742188 18.199219 18.867188 15.300781 19.199219 C 15.773438 19.621094 16.179688 20.414062 16.179688 21.671875 C 16.179688 23.460938 16.160156 24.894531 16.160156 25.335938 C 16.160156 25.6875 16.394531 26.109375 17.039062 25.976562 C 22.1875 24.210938 25.902344 19.222656 25.902344 13.328125 C 25.921875 5.957031 20.105469 0 12.960938 0 Z M 12.960938 0 "/>
</g>
</svg>
